<svg width="45" height="45" viewBox="0 0 45 45" fill="none" xmlns="http://www.w3.org/2000/svg">
<g clip-path="url(#clip0)">
<path d="M44.3222 27.9448C41.3184 40.001 29.1103 47.3323 17.0559 44.3248C5.00716 41.3436 -2.33159 29.1092 0.679664 17.0717C3.67966 5.00604 15.8915 -2.33084 27.9384 0.671037C39.9947 3.68041 47.3297 15.8867 44.3222 27.9485V27.9448ZM32.4159 19.2954C32.8659 16.3142 30.5897 14.7017 27.4659 13.6142L28.4784 9.57729L26.0128 8.95854L25.0284 12.9092C24.3815 12.746 23.7065 12.596 23.0334 12.4404L24.0197 8.45229L21.5447 7.83354L20.5322 11.8929C19.9978 11.7673 19.4728 11.6454 18.9572 11.5179L15.554 10.6742L14.8978 13.3123C14.8978 13.3123 16.7259 13.7342 16.6884 13.7548C17.6915 14.0098 17.8697 14.666 17.8415 15.191L15.0722 26.291C14.9315 26.6023 14.6222 27.0523 13.9209 26.8798C13.949 26.9173 12.1209 26.4298 12.1209 26.4298L10.8834 29.261L14.0897 30.0598L15.8334 30.5135L14.8209 34.6198L17.2959 35.2329L18.3084 31.1642C18.9834 31.3517 19.6303 31.5204 20.2772 31.676L19.3209 35.7148L21.7959 36.3335L22.8178 32.2273C27.0178 33.0279 30.1865 32.7092 31.5178 28.901C32.5865 25.8317 31.4615 24.0635 29.2359 22.9085C30.8372 22.5467 32.0484 21.4835 32.3859 19.2898H32.4047L32.4159 19.2954ZM26.7722 27.2079C26.0147 30.2829 20.8528 28.6142 19.1784 28.2017L20.5284 22.7642C22.2084 23.1954 27.5728 24.0204 26.7722 27.2079ZM27.5409 19.2579C26.8472 22.0517 22.5497 20.636 21.1565 20.2892L22.3828 15.3392C23.7778 15.6767 28.2647 16.3217 27.539 19.2467V19.2579H27.5409Z" fill="#3F3079"/>
</g>
<defs>
<clipPath id="clip0">
<rect width="45" height="45" fill="white"/>
</clipPath>
</defs>
</svg>
